<svg width="200" height="200" viewBox="0 0 200 200" fill="none" xmlns="http://www.w3.org/2000/svg">
<path d="M54.0551 11.548C55.0182 11.0366 56.0064 12.2933 55.3635 13.1741C54.1653 14.8155 53.0681 16.5354 52.081 18.3245C45.7182 29.8567 40.0506 42.3086 32.5254 53.1183C23.2703 66.4132 17.8439 82.5728 17.8439 100C17.8439 148.191 60.5413 184.348 105.467 181.868C120.15 181.058 133.806 168.379 128.961 154.494C128.011 151.772 126.629 149.295 124.816 147.181C110.676 129.447 83.0336 126.738 66.9893 110.158C56.5231 99.8202 52.3458 83.966 54.8276 71.0291C54.8386 70.9601 54.8497 70.8912 54.8609 70.8223C55.1655 68.9507 57.8203 69.0971 58.2169 70.9514C63.0049 97.5158 85.2091 104.981 108.687 115.73C128.228 125.406 148.384 143.152 143.505 167.137C139.26 188.003 120.55 200 100 200C44.7715 200 0 155.228 0 100C0 61.9422 22.2915 28.412 54.0551 11.548Z" fill="#0D4988"/>
<path d="M100 0C155.228 0 200 44.7715 200 100C200 140.45 175.983 175.289 141.432 191.038C140.447 191.487 139.539 190.198 140.219 189.356C141.526 187.738 142.73 186.034 143.823 184.254C150.795 172.891 157.099 160.542 165.216 149.966C175.84 136.123 182.156 118.8 182.156 100C182.156 54.6264 145.374 17.8439 100 17.8439C97.9357 17.8439 95.8893 17.92 93.8633 18.0697C79.6925 19.1165 66.558 30.7276 69.9204 44.5334C70.8206 48.2294 72.4463 51.5717 74.7909 54.3063C79.8627 60.6667 88.9466 65.0159 98.6306 69.6641C109.778 75.0539 122.456 80.8278 132.618 91.3293C143.084 101.667 147.261 117.521 144.78 130.458C144.769 130.527 144.758 130.596 144.746 130.665C144.442 132.536 141.787 132.39 141.39 130.536C136.602 103.971 114.398 96.5057 90.9205 85.7567C70.721 75.7547 50.2831 56.5689 53.9429 31.9744C53.9439 31.9679 53.9366 31.9631 53.9311 31.9667C53.9254 31.9705 53.9179 31.9651 53.9195 31.9584C59.2116 9.72125 78.9776 0 100 0Z" fill="#0D4988"/>
</svg>
